<?xml version="1.0" standalone="no"?>
<!DOCTYPE svg PUBLIC "-//W3C//DTD SVG 20010904//EN"
 "http://www.w3.org/TR/2001/REC-SVG-20010904/DTD/svg10.dtd">
<svg version="1.0" xmlns="http://www.w3.org/2000/svg"
 width="500.000000pt" height="500.000000pt" viewBox="0 0 500.000000 500.000000"
 preserveAspectRatio="xMidYMid meet">
<metadata>
Created by potrace 1.14, written by Peter Selinger 2001-2017
</metadata>
<g transform="translate(0.000000,500.000000) scale(0.100000,-0.100000)"
fill="#000000" stroke="none">
<path d="M925 3644 c-16 -2 -181 -8 -365 -14 -417 -13 -481 -24 -190 -33 118
-3 350 -11 515 -17 322 -13 335 -15 335 -66 0 -48 -23 -51 -370 -64 -179 -7
-383 -15 -455 -19 l-130 -6 110 -8 c61 -5 272 -14 471 -21 217 -8 369 -18 381
-24 28 -15 35 -37 21 -67 -14 -31 -14 -31 -343 -45 -366 -15 -456 -21 -450
-29 2 -4 107 -11 232 -15 125 -3 305 -11 398 -17 145 -9 173 -13 190 -29 26
-27 11 -71 -28 -81 -15 -4 -146 -12 -290 -18 -261 -11 -401 -20 -395 -26 5 -5
543 -35 629 -35 92 0 123 -14 127 -57 5 -46 -26 -63 -113 -63 -70 0 -322 -15
-445 -27 l-65 -6 50 -8 c28 -4 162 -12 298 -18 136 -7 258 -16 272 -21 63 -24
48 -93 -22 -103 -21 -3 -129 -11 -240 -18 -290 -18 -280 -22 122 -50 109 -8
178 -17 193 -26 41 -25 21 -87 -31 -97 -12 -3 -90 -10 -173 -15 -84 -6 -162
-14 -174 -19 -21 -8 176 -23 487 -39 l132 -6 -6 55 c-14 138 71 233 207 233
141 -1 269 -108 294 -247 l7 -38 835 0 835 0 -7 48 c-9 70 11 129 60 178 69
69 157 80 266 33 87 -37 180 -162 180 -241 0 -17 12 -18 161 -18 148 0 160 1
156 18 -3 9 -8 35 -11 57 -37 238 -57 289 -136 346 -34 25 -58 35 -300 135
l-115 47 -140 137 c-264 257 -467 394 -667 450 -71 20 -98 20 -1173 18 -605 0
-1113 -3 -1130 -4z m2399 -167 c105 -49 224 -131 354 -243 112 -97 136 -130
115 -163 -9 -14 -46 -16 -280 -19 -317 -3 -303 -8 -322 113 -6 39 -18 106 -26
150 -26 139 -30 186 -14 196 23 16 95 1 173 -34z"/>
<path d="M1755 2683 c-11 -3 -34 -16 -51 -28 -85 -65 -85 -201 1 -303 70 -84
214 -110 292 -53 55 40 77 89 70 161 -7 80 -51 146 -131 197 -40 26 -134 39
-181 26z"/>
<path d="M3925 2683 c-64 -18 -115 -92 -115 -168 0 -87 50 -167 133 -215 69
-39 165 -43 217 -7 60 41 75 70 75 151 0 67 -3 78 -35 125 -50 74 -114 112
-193 117 -34 1 -71 0 -82 -3z"/>
<path d="M2560 2011 c-12 -24 -14 -450 -1 -469 5 -8 17 -12 27 -10 18 3 19 17
22 237 2 227 -1 261 -29 261 -5 0 -13 -9 -19 -19z"/>
<path d="M1767 1974 c-15 -8 -32 -26 -37 -40 -6 -14 -10 -98 -10 -187 0 -130
3 -167 15 -184 34 -48 162 -53 227 -9 70 46 106 146 93 255 -14 120 -81 181
-200 181 -34 -1 -72 -7 -88 -16z m169 -69 c35 -23 54 -73 54 -145 0 -115 -44
-170 -136 -170 -42 0 -55 4 -64 19 -13 25 -13 251 -1 285 6 13 18 27 28 29 30
9 92 0 119 -18z"/>
<path d="M2448 1979 c-21 -12 -23 -40 -6 -57 34 -34 79 7 52 46 -17 25 -22 26
-46 11z"/>
<path d="M2967 1983 c-12 -3 -17 -12 -15 -26 3 -23 31 -34 88 -36 l35 -1 2
-191 c1 -190 5 -208 36 -209 19 0 27 64 27 225 0 196 -7 181 80 187 27 2 36 8
38 24 2 15 -4 23 -20 28 -26 7 -244 6 -271 -1z"/>
<path d="M3518 1979 c-21 -12 -23 -40 -6 -57 34 -34 79 7 52 46 -17 25 -22 26
-46 11z"/>
<path d="M2176 1860 c-120 -36 -147 -250 -39 -313 43 -25 114 -24 157 1 34 20
34 20 39 0 4 -12 12 -18 24 -16 22 4 32 54 32 158 -1 112 -10 164 -32 168 -12
2 -20 -3 -23 -15 -5 -19 -7 -19 -51 4 -50 25 -62 26 -107 13z m118 -91 c20
-24 26 -41 26 -81 0 -41 -5 -54 -29 -79 -72 -72 -174 -3 -156 105 9 58 38 86
91 86 35 0 47 -5 68 -31z"/>
<path d="M2446 1854 c-12 -30 -17 -188 -9 -254 7 -55 11 -65 29 -68 18 -3 22
4 28 44 7 57 6 218 -3 259 -7 33 -35 45 -45 19z"/>
<path d="M3300 1851 c-11 -21 -14 -260 -4 -298 4 -15 14 -23 29 -23 29 0 35
21 35 137 0 92 0 93 30 108 16 8 35 15 43 15 26 0 59 34 52 53 -10 24 -66 22
-97 -3 l-25 -19 -11 24 c-14 30 -37 32 -52 6z"/>
<path d="M3516 1854 c-12 -30 -17 -188 -9 -254 7 -55 11 -65 29 -68 18 -3 22
4 28 44 7 57 6 218 -3 259 -7 33 -35 45 -45 19z"/>
<path d="M2634 1846 c-6 -15 32 -118 77 -208 16 -32 29 -64 29 -73 0 -9 -13
-42 -30 -75 -39 -78 -39 -120 2 -105 30 12 244 434 234 461 -13 34 -43 5 -101
-98 -33 -59 -63 -107 -66 -108 -3 0 -20 35 -38 78 -17 43 -40 92 -51 110 -21
33 -47 42 -56 18z"/>
<path d="M3705 1851 c-28 -12 -52 -40 -70 -83 -34 -82 -28 -370 8 -392 15 -9
21 -7 33 9 13 16 15 36 10 98 l-7 78 30 -16 c68 -35 165 -9 209 55 42 62 26
176 -32 230 -22 20 -39 25 -94 27 -37 2 -76 -1 -87 -6z m136 -80 c24 -24 29
-38 29 -76 0 -89 -84 -135 -147 -81 -25 21 -28 31 -28 81 0 50 3 60 28 81 39
33 81 31 118 -5z"/>
<path d="M1138 1069 c-15 -8 -18 -25 -18 -99 0 -53 4 -90 10 -90 6 0 10 16 10
35 0 33 2 35 35 35 42 0 75 29 75 65 0 51 -65 82 -112 54z m80 -52 c3 -21 -3
-30 -22 -38 -35 -16 -56 -5 -56 30 0 55 72 62 78 8z"/>
<path d="M1276 1064 c-8 -20 -8 -148 0 -168 9 -25 94 -19 94 6 0 6 -14 8 -35
4 l-35 -7 0 85 c0 80 -10 115 -24 80z"/>
<path d="M1450 1059 c-18 -33 -60 -148 -60 -164 0 -23 16 -18 28 10 10 21 19
25 52 25 27 0 40 -4 40 -14 0 -7 7 -19 15 -26 12 -10 15 -10 15 3 0 26 -61
187 -71 187 -4 0 -13 -9 -19 -21z m36 -77 c6 -30 5 -32 -21 -32 -25 0 -26 2
-20 33 13 59 29 59 41 -1z"/>
<path d="M1578 1073 c-27 -7 -22 -23 7 -23 24 0 25 -3 25 -54 0 -29 3 -68 6
-85 12 -58 24 -31 24 54 0 84 0 85 25 85 14 0 25 4 25 9 0 17 -68 26 -112 14z"/>
<path d="M1770 1059 c-18 -33 -60 -148 -60 -164 0 -23 16 -18 28 10 10 21 19
25 52 25 27 0 40 -4 40 -14 0 -7 7 -19 15 -26 12 -10 15 -10 15 3 0 26 -61
187 -71 187 -4 0 -13 -9 -19 -21z m36 -77 c6 -30 5 -32 -21 -32 -25 0 -26 2
-20 33 13 59 29 59 41 -1z"/>
<path d="M1908 1069 c-15 -8 -18 -25 -18 -99 0 -91 16 -126 22 -47 3 39 5 42
36 45 17 2 32 7 32 12 0 5 -15 10 -32 12 -28 2 -33 7 -33 28 0 23 4 25 48 28
50 3 62 16 25 26 -33 8 -60 7 -80 -5z"/>
<path d="M2084 1066 c-36 -16 -44 -32 -44 -92 0 -94 105 -132 145 -53 22 42
19 94 -7 123 -30 32 -56 38 -94 22z m77 -32 c23 -28 17 -93 -10 -115 -30 -24
-46 -24 -71 1 -24 24 -26 77 -4 108 18 26 65 30 85 6z"/>
<path d="M2251 1061 c-19 -19 -21 -31 -19 -98 2 -50 7 -78 16 -81 8 -2 12 8
12 32 0 48 29 49 61 1 13 -19 30 -35 37 -35 17 0 15 7 -8 41 l-21 28 22 22
c16 16 20 28 15 52 -8 40 -15 46 -58 53 -28 5 -40 2 -57 -15z m87 -40 c4 -29
-20 -51 -55 -51 -19 0 -23 5 -23 33 0 19 3 37 7 41 4 4 21 6 38 4 23 -2 31 -8
33 -27z"/>
<path d="M2417 1073 c-8 -13 -27 -125 -27 -160 0 -55 18 -28 26 38 4 32 10 61
14 64 3 2 14 -18 24 -46 10 -27 22 -49 26 -49 4 0 18 24 31 53 l23 52 8 -50
c14 -83 19 -98 28 -89 10 10 -16 174 -30 188 -8 8 -31 -34 -52 -94 -3 -9 -15
7 -31 43 -26 57 -32 64 -40 50z"/>
<path d="M2650 1059 c-18 -33 -60 -148 -60 -164 0 -23 16 -18 28 10 10 21 19
25 52 25 27 0 40 -4 40 -14 0 -7 7 -19 15 -26 12 -10 15 -10 15 3 0 26 -61
187 -71 187 -4 0 -13 -9 -19 -21z m36 -77 c6 -30 5 -32 -21 -32 -25 0 -26 2
-20 33 13 59 29 59 41 -1z"/>
<path d="M2846 1067 c-14 -10 -16 -26 -14 -97 l3 -85 29 -3 c46 -6 75 6 91 38
29 55 17 124 -26 145 -34 18 -60 19 -83 2z m81 -29 c32 -41 20 -110 -22 -130
-39 -18 -55 3 -55 72 0 31 3 60 7 63 11 12 60 8 70 -5z"/>
<path d="M3030 1073 c-25 -10 -30 -25 -30 -91 0 -90 9 -102 75 -102 67 0 73
18 8 22 -46 3 -48 4 -51 36 -3 31 -2 32 32 32 20 0 36 5 36 10 0 6 -16 10 -35
10 -32 0 -35 2 -35 30 0 29 2 30 44 30 53 0 69 15 25 24 -36 7 -48 7 -69 -1z"/>
<path d="M3242 1070 c-22 -9 -23 -14 -20 -97 l3 -88 58 -3 c33 -2 57 1 57 7 0
5 -21 11 -47 13 -46 3 -48 4 -48 33 0 27 4 30 33 33 43 4 41 22 -3 22 -32 0
-35 2 -35 30 0 29 1 30 50 30 52 0 67 13 28 24 -30 8 -48 7 -76 -4z"/>
<path d="M3392 1059 c-13 -33 -34 -170 -27 -177 10 -11 19 10 30 75 l11 68 23
-52 c13 -29 27 -53 32 -53 4 0 16 22 26 49 9 27 20 48 24 46 3 -3 9 -32 13
-64 7 -65 26 -94 26 -39 -1 51 -24 163 -34 163 -10 0 -20 -16 -42 -70 l-16
-40 -20 50 c-25 65 -35 74 -46 44z"/>
<path d="M3601 1063 c-20 -16 -22 -26 -19 -98 3 -79 20 -110 26 -47 3 27 7 32
30 32 44 0 72 26 72 65 0 57 -63 85 -109 48z m87 -44 c4 -27 -21 -49 -55 -49
-20 0 -23 5 -23 39 0 30 4 41 18 43 29 7 57 -8 60 -33z"/>
<path d="M3756 1064 c-12 -12 -16 -36 -16 -100 0 -49 4 -84 10 -84 6 0 10 16
10 35 0 30 3 35 23 35 14 0 30 -12 45 -35 22 -34 42 -46 42 -24 0 6 -9 22 -20
36 l-20 26 20 14 c28 20 27 77 -2 97 -29 20 -72 20 -92 0z m88 -37 c9 -15 7
-22 -13 -38 -45 -37 -80 -18 -67 37 6 21 12 25 38 22 17 -2 36 -11 42 -21z"/>
<path d="M3930 1073 c-25 -10 -30 -25 -30 -91 0 -90 9 -102 75 -102 67 0 73
18 8 22 -46 3 -48 4 -51 36 -3 31 -2 32 32 32 20 0 36 5 36 10 0 6 -16 10 -35
10 -32 0 -35 2 -35 30 0 29 2 30 44 30 53 0 69 15 25 24 -36 7 -48 7 -69 -1z"/>
<path d="M4093 1070 c-34 -14 -41 -59 -13 -82 12 -10 30 -18 39 -18 22 0 41
-19 41 -42 0 -22 -41 -34 -68 -19 -27 14 -32 14 -32 -3 0 -32 80 -36 111 -5
31 31 21 61 -31 86 -61 29 -63 58 -2 57 47 -1 55 12 16 26 -30 12 -32 12 -61
0z"/>
<path d="M4270 1059 c-18 -33 -60 -148 -60 -164 0 -23 16 -18 28 10 10 21 19
25 52 25 27 0 40 -4 40 -14 0 -7 7 -19 15 -26 12 -10 15 -10 15 3 0 26 -61
187 -71 187 -4 0 -13 -9 -19 -21z m36 -77 c6 -30 5 -32 -21 -32 -25 0 -26 2
-20 33 13 59 29 59 41 -1z"/>
<path d="M4423 1070 c-34 -14 -41 -59 -13 -82 12 -10 30 -18 39 -18 22 0 41
-19 41 -42 0 -22 -41 -34 -68 -19 -27 14 -32 14 -32 -3 0 -32 80 -36 111 -5
31 31 21 61 -31 86 -61 29 -63 58 -2 57 47 -1 55 12 16 26 -30 12 -32 12 -61
0z"/>
</g>
</svg>
